<svg id="Cat" xmlns="http://www.w3.org/2000/svg" viewBox="0 0 450.57 309.87"><defs><style>.cls-1{fill:#efc786;}.cls-2{fill:#d3876c;}.cls-3{fill:#a85c3b;}.cls-4{fill:#f7eee2;}.cls-5{fill:#9b8ab5;}.cls-6{fill:#ffa994;}</style></defs><path class="cls-1" d="M451.64,317.83c-.18,34.58-17.92,64.4-54.26,88.9-39.71,26.74-142.86,29.4-193.68.61-38.14-21.61-55.16-54.93-55.34-89.51-.24-45.93,40.44-89.39,102-105.32a192.76,192.76,0,0,1,27.88-5.13c2.12-.24,4.29-.48,6.46-.6,5-.43,10.08-.67,15.27-.73,5.43.06,10.8.3,16.06.79q2.89.18,5.79.54a192.48,192.48,0,0,1,27.88,5.19C411.27,228.5,451.88,271.9,451.64,317.83Z" transform="translate(-74.72 -118)"/><path class="cls-2" d="M275,247c-2.83,9-8.08,21.37-16.83,13.28-6.1-5.61-8.57-28.79-7.85-47.8a192.76,192.76,0,0,1,27.88-5.13C278.61,220.54,278.3,236.65,275,247Z" transform="translate(-74.72 -118)"/><path class="cls-2" d="M312.46,257.11c-3.25,10.32-9.29,24.57-19.43,15.27-8.15-7.54-10.68-42.73-8.33-65.6,5-.43,10.08-.67,15.27-.73,5.43.06,10.8.3,16.06.79C316.63,222.77,316.57,243.89,312.46,257.11Z" transform="translate(-74.72 -118)"/><path class="cls-2" d="M349.7,212.57c0,11.17-.72,23.06-3.32,31.39-2.77,9-8.08,21.3-16.83,13.27-6.28-5.79-8.76-30.54-7.73-49.85A192.48,192.48,0,0,1,349.7,212.57Z" transform="translate(-74.72 -118)"/><path class="cls-3" d="M300.3,350.06a19.47,19.47,0,0,1-11-3.45,3,3,0,0,1,3.55-4.88c.34.24,7.31,5.06,14.23,0a3,3,0,1,1,3.56,4.87A17.27,17.27,0,0,1,300.3,350.06Z" transform="translate(-74.72 -118)"/><path class="cls-3" d="M300.92,377.67a45,45,0,0,1-24-7.45,3,3,0,0,1,3.55-4.87c.81.58,19.82,14,39,0a3,3,0,1,1,3.56,4.87A36.81,36.81,0,0,1,300.92,377.67Z" transform="translate(-74.72 -118)"/><path class="cls-3" d="M300,376.93a3,3,0,0,1-3-3V347.83a3,3,0,1,1,6,0v26.08A3,3,0,0,1,300,376.93Z" transform="translate(-74.72 -118)"/><circle class="cls-3" cx="236.08" cy="313.65" r="22.66" transform="translate(-202.73 342.45) rotate(-74.99)"/><path class="cls-4" d="M249.47,311a6.17,6.17,0,1,1-6.17-6.17A6.17,6.17,0,0,1,249.47,311Z" transform="translate(-74.72 -118)"/><circle class="cls-3" cx="363.92" cy="313.65" r="22.66" transform="translate(-187.69 137.45) rotate(-33.8)"/><path class="cls-4" d="M380.65,311a6.17,6.17,0,1,1-6.17-6.17A6.17,6.17,0,0,1,380.65,311Z" transform="translate(-74.72 -118)"/><path class="cls-2" d="M374.32,356.71a3,3,0,0,1-.56-6l127.7-24.43a3,3,0,0,1,1.14,5.93L374.89,356.65A2.76,2.76,0,0,1,374.32,356.71Z" transform="translate(-74.72 -118)"/><path class="cls-2" d="M498.63,403.5l-.38,0-129-16.39a3,3,0,0,1,.76-6l129,16.39a3,3,0,0,1-.38,6Z" transform="translate(-74.72 -118)"/><path class="cls-2" d="M374.93,372.13a3,3,0,0,1-.17-6l147.34-8.17a2.94,2.94,0,0,1,3.18,2.85,3,3,0,0,1-2.84,3.18L375.1,372.12Z" transform="translate(-74.72 -118)"/><path class="cls-2" d="M225.69,356.71a2.76,2.76,0,0,1-.57-.06L97.41,332.23a3,3,0,0,1,1.13-5.93l127.71,24.43a3,3,0,0,1-.56,6Z" transform="translate(-74.72 -118)"/><path class="cls-2" d="M101.37,403.5a3,3,0,0,1-.37-6L230,381.1a3,3,0,1,1,.76,6l-129,16.39Z" transform="translate(-74.72 -118)"/><path class="cls-2" d="M225.07,372.13h-.17L77.56,364a3,3,0,0,1-2.84-3.18,2.92,2.92,0,0,1,3.18-2.85l147.34,8.17a3,3,0,0,1-.17,6Z" transform="translate(-74.72 -118)"/><path class="cls-1" d="M248.87,212.51s-4.16,1.15-11.1,3.92a214,214,0,0,0-62.89,39.66c-3.5,3.2-7,6.58-10.5,10.2-.42.48-7.61-66.27,13-88.91S248.87,212.51,248.87,212.51Z" transform="translate(-74.72 -118)"/><path class="cls-2" d="M237.77,216.43a214,214,0,0,0-62.89,39.66c-1-14.55-1.63-49.13,10.92-62.83C198.84,179,227.21,205.57,237.77,216.43Z" transform="translate(-74.72 -118)"/><path class="cls-1" d="M351.13,212.51s4.16,1.15,11.1,3.92a214,214,0,0,1,62.89,39.66c3.5,3.2,7,6.58,10.51,10.2.42.48,7.6-66.27-13-88.91S351.13,212.51,351.13,212.51Z" transform="translate(-74.72 -118)"/><path class="cls-2" d="M362.23,216.43a214,214,0,0,1,62.89,39.66c1-14.55,1.63-49.13-10.92-62.83C401.16,179,372.8,205.57,362.23,216.43Z" transform="translate(-74.72 -118)"/><circle class="cls-5" cx="353.78" cy="78.5" r="78.5"/><rect class="cls-6" x="303.28" y="67.12" width="95" height="15.65" rx="7"/><rect class="cls-6" x="378.56" y="185.68" width="95" height="15.65" rx="7" transform="translate(157.84 501.56) rotate(-90)"/></svg>