<svg id="Kids" xmlns="http://www.w3.org/2000/svg" viewBox="0 0 473 473"><defs><style>.cls-1{fill:#ffa994;}.cls-2{fill:#efc786;}.cls-3{fill:#9b8ab5;}</style></defs><circle class="cls-1" cx="236.5" cy="236.5" r="236.5"/><path class="cls-2" d="M375.6,435.49H225c-29,0-52.62,13.09-52.62,29.19S196,493.86,225,493.86H375.6c29,0,52.62-13.09,52.62-29.18S404.61,435.49,375.6,435.49Z" transform="translate(-63.8 -56.14)"/><path class="cls-3" d="M296.3,111.41c-62,0-112.22,49.45-112.22,110.46,0,44,26.22,81.9,64.07,99.65L296.3,479l48.16-157.45c37.84-17.75,64.06-55.64,64.06-99.65C408.52,160.86,358.28,111.41,296.3,111.41Zm0,147.15c-20.73,0-37.54-16.54-37.54-36.95s16.81-37,37.54-37,37.54,16.54,37.54,37S317,258.56,296.3,258.56Z" transform="translate(-63.8 -56.14)"/><circle class="cls-3" cx="231.9" cy="165.23" r="38.5"/><path class="cls-1" d="M373.83,234.39H219.06a15.26,15.26,0,0,1-15.26-15.26h0a15.26,15.26,0,0,1,15.26-15.26H373.83a15.26,15.26,0,0,1,15.26,15.26h0A15.26,15.26,0,0,1,373.83,234.39Z" transform="translate(-63.8 -56.14)"/><path class="cls-1" d="M312.8,142.83V297.6a15.26,15.26,0,0,1-15.26,15.26h0a15.26,15.26,0,0,1-15.26-15.26V142.83a15.26,15.26,0,0,1,15.26-15.26h0A15.26,15.26,0,0,1,312.8,142.83Z" transform="translate(-63.8 -56.14)"/></svg>