<svg id="Home_Interior" data-name="Home &amp; Interior" xmlns="http://www.w3.org/2000/svg" viewBox="0 0 450.57 255.75"><defs><style>.cls-1{fill:#efc786;}.cls-2{fill:#d3876c;}.cls-3{fill:#a85c3b;}.cls-4{fill:#f7eee2;}</style></defs><path class="cls-1" d="M451.86,317.77c-.18,34.58-17.92,64.4-54.26,88.9-39.71,26.74-142.86,29.39-193.67.6-38.15-21.6-55.17-54.92-55.35-89.5-.24-45.93,40.44-89.39,102-105.32a190.08,190.08,0,0,1,27.88-5.13c2.12-.24,4.29-.49,6.46-.61,5-.42,10.08-.66,15.27-.72,5.43.06,10.81.3,16.06.78q2.89.19,5.79.55a189.81,189.81,0,0,1,27.88,5.19C411.49,228.44,452.11,271.84,451.86,317.77Z" transform="translate(-74.94 -172.06)"/><path class="cls-2" d="M275.27,247c-2.84,9-8.09,21.37-16.84,13.28-6.1-5.61-8.57-28.79-7.85-47.8a190.08,190.08,0,0,1,27.88-5.13C278.83,220.47,278.52,236.59,275.27,247Z" transform="translate(-74.94 -172.06)"/><path class="cls-2" d="M312.69,257.05c-3.26,10.32-9.3,24.56-19.44,15.27-8.15-7.54-10.68-42.73-8.33-65.61,5-.42,10.08-.66,15.27-.72,5.43.06,10.81.3,16.06.78C316.85,222.71,316.79,243.83,312.69,257.05Z" transform="translate(-74.94 -172.06)"/><path class="cls-2" d="M349.92,212.51c0,11.16-.72,23.05-3.32,31.38-2.77,9-8.08,21.31-16.83,13.28-6.28-5.79-8.76-30.54-7.73-49.85A189.81,189.81,0,0,1,349.92,212.51Z" transform="translate(-74.94 -172.06)"/><path class="cls-3" d="M300.52,350a19.47,19.47,0,0,1-11-3.45,3,3,0,0,1,3.55-4.88c.34.24,7.31,5.06,14.23,0a3,3,0,1,1,3.56,4.87A17.27,17.27,0,0,1,300.52,350Z" transform="translate(-74.94 -172.06)"/><path class="cls-3" d="M301.14,377.6a45,45,0,0,1-24-7.44,3,3,0,1,1,3.55-4.87c.81.57,19.82,14,39,0a3,3,0,1,1,3.56,4.87A36.77,36.77,0,0,1,301.14,377.6Z" transform="translate(-74.94 -172.06)"/><path class="cls-3" d="M300.22,376.87a3,3,0,0,1-3-3V347.77a3,3,0,0,1,6,0v26.08A3,3,0,0,1,300.22,376.87Z" transform="translate(-74.94 -172.06)"/><circle class="cls-3" cx="236.3" cy="313.59" r="22.66" transform="translate(-198.49 298.63) rotate(-76.59)"/><path class="cls-4" d="M249.69,311a6.17,6.17,0,1,1-6.16-6.16A6.16,6.16,0,0,1,249.69,311Z" transform="translate(-74.94 -172.06)"/><circle class="cls-3" cx="364.14" cy="313.59" r="22.66" transform="translate(-166.37 -11.42) rotate(-22.18)"/><path class="cls-4" d="M380.87,311a6.17,6.17,0,1,1-6.17-6.16A6.17,6.17,0,0,1,380.87,311Z" transform="translate(-74.94 -172.06)"/><path class="cls-2" d="M374.54,356.65a3,3,0,0,1-.56-6l127.7-24.42a3,3,0,1,1,1.14,5.93L375.11,356.59A2.76,2.76,0,0,1,374.54,356.65Z" transform="translate(-74.94 -172.06)"/><path class="cls-2" d="M498.85,403.44a2.43,2.43,0,0,1-.38,0L369.48,387a3,3,0,0,1,.76-6l129,16.39a3,3,0,0,1-.38,6Z" transform="translate(-74.94 -172.06)"/><path class="cls-2" d="M375.15,372.06a3,3,0,0,1-.17-6l147.34-8.16a2.93,2.93,0,0,1,3.18,2.85,3,3,0,0,1-2.84,3.17l-147.34,8.17Z" transform="translate(-74.94 -172.06)"/><path class="cls-2" d="M225.91,356.65a2.76,2.76,0,0,1-.57-.06L97.63,332.17a3,3,0,0,1,1.13-5.93l127.71,24.42a3,3,0,0,1-.56,6Z" transform="translate(-74.94 -172.06)"/><path class="cls-2" d="M101.59,403.44a3,3,0,0,1-.37-6L230.2,381a3,3,0,1,1,.76,6L102,403.41Z" transform="translate(-74.94 -172.06)"/><path class="cls-2" d="M225.3,372.06h-.18L77.79,363.89a3,3,0,0,1-2.85-3.17,2.92,2.92,0,0,1,3.18-2.85L225.46,366a3,3,0,0,1-.16,6Z" transform="translate(-74.94 -172.06)"/><path class="cls-1" d="M249.1,212.45A114.69,114.69,0,0,0,238,216.37,213.7,213.7,0,0,0,175.1,256c-3.5,3.2-7,6.58-10.5,10.2-.42.49-7.61-66.27,13-88.9S249.1,212.45,249.1,212.45Z" transform="translate(-74.94 -172.06)"/><path class="cls-2" d="M238,216.37A213.7,213.7,0,0,0,175.1,256c-1-14.54-1.63-49.12,10.92-62.83C199.06,178.89,227.43,205.51,238,216.37Z" transform="translate(-74.94 -172.06)"/><path class="cls-1" d="M351.35,212.45a115.23,115.23,0,0,1,11.1,3.92A213.57,213.57,0,0,1,425.34,256c3.5,3.2,7,6.58,10.51,10.2.42.49,7.6-66.27-13-88.9S351.35,212.45,351.35,212.45Z" transform="translate(-74.94 -172.06)"/><path class="cls-2" d="M362.45,216.37A213.57,213.57,0,0,1,425.34,256c1-14.54,1.63-49.12-10.92-62.83C401.38,178.89,373,205.51,362.45,216.37Z" transform="translate(-74.94 -172.06)"/></svg>