<svg id="Layer_1" data-name="Layer 1" xmlns="http://www.w3.org/2000/svg" xmlns:xlink="http://www.w3.org/1999/xlink" viewBox="0 0 46.1 46.14"><defs><style>.cls-1{fill:none;}.cls-2{clip-path:url(#clip-path);}.cls-3{fill:#fff;}</style><clipPath id="clip-path" transform="translate(-26.45 -26.96)"><rect class="cls-1" width="100" height="100"/></clipPath></defs><title>edit</title><g class="cls-2"><path class="cls-3" d="M66.9,73.1H27.6A1.15,1.15,0,0,1,26.45,72V32.6a1.15,1.15,0,0,1,1.15-1.15H46.13v2.3H28.76V70.8h37V53.4h2.3V72A1.14,1.14,0,0,1,66.9,73.1" transform="translate(-26.45 -26.96)"/><path class="cls-3" d="M52,57.38H43.3a1.14,1.14,0,0,1-1.15-1.15V47.54a1.13,1.13,0,0,1,.34-.81L61.9,27.29a1.17,1.17,0,0,1,1.63,0L72.21,36a1.16,1.16,0,0,1,0,1.64L52.8,57.05a1.2,1.2,0,0,1-.82.33m-7.52-2.3h7L69.76,36.79l-7-7L44.46,48Z" transform="translate(-26.45 -26.96)"/></g></svg>