<svg id="Places" xmlns="http://www.w3.org/2000/svg" viewBox="0 0 210.47 354.66"><defs><style>.cls-1{fill:#efc786;}.cls-2{fill:#9b8ab5;}</style></defs><path class="cls-1" d="M360.81,403.26H238c-23.68,0-43.53,10.78-44,24.41C193.57,441.6,213.11,453,237.2,453H360c23.67,0,43.52-10.78,43.95-24.41C404.43,414.66,384.89,403.26,360.81,403.26Z" transform="translate(-193.81 -98.34)"/><path class="cls-2" d="M299,98.34c-58.12,0-105.23,46.37-105.23,103.58,0,41.28,24.58,76.81,60.07,93.46L299,443,344.2,295.38c35.49-16.65,60.08-52.18,60.08-93.46C404.28,144.71,357.16,98.34,299,98.34Zm0,138c-19.44,0-35.2-15.52-35.2-34.66S279.6,167,299,167s35.21,15.52,35.21,34.65S318.49,236.34,299,236.34Z" transform="translate(-193.81 -98.34)"/></svg>