<svg id="Layer_1" data-name="Layer 1" xmlns="http://www.w3.org/2000/svg" xmlns:xlink="http://www.w3.org/1999/xlink" viewBox="0 0 46.72 46.16"><defs><style>.cls-1{fill:none;}.cls-2{clip-path:url(#clip-path);}.cls-3{fill:#fff;}</style><clipPath id="clip-path" transform="translate(-26.19 -26.95)"><rect class="cls-1" width="100" height="100"/></clipPath></defs><title>setting</title><g class="cls-2"><path class="cls-3" d="M42.09,73.1a1.17,1.17,0,0,1-1-.55l-4-6.63-7.29-2.69A1.17,1.17,0,0,1,29,62l1.16-7.68-3.85-6.75a1.16,1.16,0,0,1,.24-1.44L32.4,41l1.39-7.64a1.15,1.15,0,0,1,1.11-1l7.76-.2,6-5a1.16,1.16,0,0,1,1.46,0L56.16,32l7.76,0a1.17,1.17,0,0,1,1.13.93l1.54,7.61,5.92,5a1.15,1.15,0,0,1,.26,1.43l-3.71,6.83,1.31,7.65a1.16,1.16,0,0,1-.72,1.27l-7.22,2.84-3.92,6.71a1.16,1.16,0,0,1-1.36.51l-7.36-2.47L42.48,73a1.07,1.07,0,0,1-.39.07M31.46,61.39l6.77,2.51a1.16,1.16,0,0,1,.59.48l3.76,6.17,6.81-2.44a1.13,1.13,0,0,1,.75,0L57,70.4l3.65-6.24a1.14,1.14,0,0,1,.57-.49L67.94,61,66.72,53.9a1.21,1.21,0,0,1,.12-.75L70.3,46.8l-5.51-4.68a1.15,1.15,0,0,1-.39-.65L63,34.39l-7.22,0a1.14,1.14,0,0,1-.72-.26l-5.65-4.5-5.56,4.62a1.18,1.18,0,0,1-.7.26l-7.23.18L34.6,41.77a1.19,1.19,0,0,1-.37.65l-5.42,4.79,3.58,6.28a1.16,1.16,0,0,1,.14.75Z" transform="translate(-26.19 -26.95)"/><path class="cls-3" d="M49.31,60.85a10.51,10.51,0,1,1,10.5-10.51,10.52,10.52,0,0,1-10.5,10.51m0-18.71a8.2,8.2,0,1,0,8.19,8.2,8.2,8.2,0,0,0-8.19-8.2" transform="translate(-26.19 -26.95)"/></g></svg>